# xmcd CD Database Entry
#
# Track frame offsets:
# 187
# 15742
# 29505
# 43872
# 58525
# 72867
# 85357
# 100817
# 114692
# 129322
# 142867
# 155202
# 168877
# 181875
# 196287
# 210330
# 223437
#
# Disc length: 3165 seconds
#
# Revision: 1
# Processed by: cddbd v1.4PL0 Copyright (c) Steve Scherf et al.
# Submitted via: tcd 2.0b
#
DISCID=f40c5b11
DTITLE=Louis Armstrong - Satchimo Serenades
DYEAR=1900
DGENRE=
TTITLE0=(When We Are Dancing) I Get Ideas
TTITLE1=A Kiss To Build A Dream On
TTITLE2=Cold, Cold Heart
TTITLE3=Because Of You
TTITLE4=I'll Walk Alone
TTITLE5=Congratulations To Someone
TTITLE6=La Vie En Rose
TTITLE7=C'est Si Bon (It's So Good)
TTITLE8=Maybe It's Because
TTITLE9=I'll Keep The Lovelight Burning (In My Heart)
TTITLE10=I Can't Afford To Miss This Dream
TTITLE11=Sittin' In The Sun (Countin' My Money)
TTITLE12=Blueberry Hill
TTITLE13=Indian Love Call
TTITLE14=Kiss Of Fire
TTITLE15=Takes Two To Tango
TTITLE16=That Lucky Old Sun
EXTD=
EXTT0=
EXTT1=
EXTT2=
EXTT3=
EXTT4=
EXTT5=
EXTT6=
EXTT7=
EXTT8=
EXTT9=
EXTT10=
EXTT11=
EXTT12=
EXTT13=
EXTT14=
EXTT15=
EXTT16=
PLAYORDER=
